<svg xmlns="http://www.w3.org/2000/svg" width="200" height="200" viewBox="0 0 200 200"><defs><style>.a{fill:#69deff;}</style></defs><title>Mimic_color</title><path class="a" d="M107.66,25.29A76,76,0,0,0,47,147.06c-3.38,6.08-7.43,11.06-10.16,13.39a52.53,52.53,0,0,1-12,7.63c-4.05,2-6.81,2.54-7.7,4.32A2.66,2.66,0,0,0,18.77,176a29.46,29.46,0,0,0,8.45,1.19,106.15,106.15,0,0,0,16.18-1,132.92,132.92,0,0,0,30-7.13,76,76,0,1,0,34.3-143.77Zm-18.18,95a12,12,0,0,1-24,0V87.34a12,12,0,0,1,24,0Zm30.68,0a12,12,0,1,1-24,0v-18a12,12,0,1,1,24,0Zm30.69,0a12,12,0,0,1-24,0V87.34a12,12,0,0,1,24,0Z"/></svg>